<mxfile host="Electron" modified="2024-05-17T04:44:30.581Z" agent="Mozilla/5.0 (Windows NT 10.0; Win64; x64) AppleWebKit/537.36 (KHTML, like Gecko) draw.io/24.4.0 Chrome/120.0.6099.109 Electron/28.1.0 Safari/537.36" etag="DnRKmE7Cvyl7VIYLymTE" version="24.4.0" type="device">
  <diagram name="Page-1" id="bCEqOOl4RGumcqwmBMzh">
    <mxGraphModel dx="1105" dy="654" grid="1" gridSize="10" guides="1" tooltips="1" connect="1" arrows="1" fold="1" page="1" pageScale="1" pageWidth="850" pageHeight="1100" math="0" shadow="0">
      <root>
        <mxCell id="0" />
        <mxCell id="1" parent="0" />
        <mxCell id="fhB4mGOg6VwzdligFplq-4" style="edgeStyle=orthogonalEdgeStyle;rounded=0;orthogonalLoop=1;jettySize=auto;html=1;entryX=0;entryY=0.5;entryDx=0;entryDy=0;" edge="1" parent="1" source="fhB4mGOg6VwzdligFplq-1" target="fhB4mGOg6VwzdligFplq-2">
          <mxGeometry relative="1" as="geometry" />
        </mxCell>
        <mxCell id="fhB4mGOg6VwzdligFplq-1" value="User Input" style="rounded=0;whiteSpace=wrap;html=1;" vertex="1" parent="1">
          <mxGeometry x="70" y="240" width="120" height="60" as="geometry" />
        </mxCell>
        <mxCell id="fhB4mGOg6VwzdligFplq-6" style="edgeStyle=orthogonalEdgeStyle;rounded=0;orthogonalLoop=1;jettySize=auto;html=1;entryX=0;entryY=0.5;entryDx=0;entryDy=0;" edge="1" parent="1" source="fhB4mGOg6VwzdligFplq-2" target="fhB4mGOg6VwzdligFplq-5">
          <mxGeometry relative="1" as="geometry" />
        </mxCell>
        <mxCell id="fhB4mGOg6VwzdligFplq-2" value="Computing Unit" style="rounded=0;whiteSpace=wrap;html=1;" vertex="1" parent="1">
          <mxGeometry x="350" y="240" width="120" height="60" as="geometry" />
        </mxCell>
        <mxCell id="fhB4mGOg6VwzdligFplq-5" value="Output" style="rounded=0;whiteSpace=wrap;html=1;" vertex="1" parent="1">
          <mxGeometry x="590" y="240" width="120" height="60" as="geometry" />
        </mxCell>
      </root>
    </mxGraphModel>
  </diagram>
</mxfile>
